HIERARCHY
ROOT Hips
{
  OFFSET 57.8838 95.319 338.509
  CHANNELS 6 Xposition Yposition Zposition Zrotation Xrotation Yrotation
  JOINT LeftUpLeg
  {
    OFFSET 8.64259 1.95398 -2.38835
    CHANNELS 3 Zrotation Xrotation Yrotation
    JOINT LeftLeg
    {
      OFFSET 43.7702 0 0
      CHANNELS 3 Zrotation Xrotation Yrotation
      JOINT LeftFoot
      {
        OFFSET 40.6238 0 0
        CHANNELS 3 Zrotation Xrotation Yrotation
        JOINT LeftToeBase
        {
          OFFSET 12.7242 0 0
          CHANNELS 3 Zrotation Xrotation Yrotation
          End Site
          {
            OFFSET 0 0 0
          }
        }
      }
    }
  }
  JOINT RightUpLeg
  {
    OFFSET -8.2249 1.95398 -2.59336
    CHANNELS 3 Zrotation Xrotation Yrotation
    JOINT RightLeg
    {
      OFFSET 43.5653 0 0
      CHANNELS 3 Zrotation Xrotation Yrotation
      JOINT RightFoot
      {
        OFFSET 40.6238 0 0
        CHANNELS 3 Zrotation Xrotation Yrotation
        JOINT RightToeBase
        {
          OFFSET 12.7242 0 0
          CHANNELS 3 Zrotation Xrotation Yrotation
          End Site
          {
            OFFSET 0 0 0
          }
        }
      }
    }
  }
  JOINT Spine
  {
    OFFSET 0.165834 0.87714 6.61349
    CHANNELS 3 Zrotation Xrotation Yrotation
    JOINT Spine1
    {
      OFFSET 7.38963 1.71661e-005 0
      CHANNELS 3 Zrotation Xrotation Yrotation
      JOINT Spine2
      {
        OFFSET 11.9445 1.14441e-005 0
        CHANNELS 3 Zrotation Xrotation Yrotation
        JOINT Spine3
        {
          OFFSET 14.7254 4.19617e-005 0
          CHANNELS 3 Zrotation Xrotation Yrotation
          JOINT Spine4
          {
            OFFSET 10.9679 0 0
            CHANNELS 3 Zrotation Xrotation Yrotation
            JOINT RightShoulder
            {
              OFFSET 2.46616 -1.6653 3.69651
              CHANNELS 3 Zrotation Xrotation Yrotation
              JOINT RightArm
              {
                OFFSET 13.0012 0 0
                CHANNELS 3 Zrotation Xrotation Yrotation
                JOINT RightForeArm
                {
                  OFFSET 28.7848 1.62311e-005 0
                  CHANNELS 3 Zrotation Xrotation Yrotation
                  JOINT RightHand
                  {
                    OFFSET 26.5688 1.62095e-005 0
                    CHANNELS 3 Zrotation Xrotation Yrotation
                    End Site
                    {
                      OFFSET 0 0 0
                    }
                  }
                }
              }
            }
            JOINT LeftShoulder
            {
              OFFSET 2.38034 -1.29275 -3.7523
              CHANNELS 3 Zrotation Xrotation Yrotation
              JOINT LeftArm
              {
                OFFSET 16.3182 6.07031e-005 0
                CHANNELS 3 Zrotation Xrotation Yrotation
                JOINT LeftForeArm
                {
                  OFFSET 27.0901 0 0
                  CHANNELS 3 Zrotation Xrotation Yrotation
                  JOINT LeftHand
                  {
                    OFFSET 24.5451 1.51738e-005 0
                    CHANNELS 3 Zrotation Xrotation Yrotation
                    End Site
                    {
                      OFFSET 0 0 0
                    }
                  }
                }
              }
            }
            JOINT Neck
            {
              OFFSET 5.0226 -0.0266342 0
              CHANNELS 3 Zrotation Xrotation Yrotation
              JOINT Head
              {
                OFFSET 6.69364 2.86102e-005 0
                CHANNELS 3 Zrotation Xrotation Yrotation
                End Site
                {
                  OFFSET 0 0 0
                }
              }
            }
          }
        }
      }
    }
  }
}
MOTION
Frames:	7
Frame Time:	0.0416667
13.5801 97.1214 -28.1744 -141.475 -87.4745 -140.345 -177.219 2.73328 88.5957 -15.5109 1.29469 1.04183 66.4888 3.97525 0.572826 30.9283 0.762033 2.76725 174.673 1.55184 93.0964 -13.9544 -9.62338 -0.271845 65.2336 -7.64747 -0.018932 30.1125 -1.7813 1.14097 -0.31051 7.06933 -90.2317 12.734 -0.727402 -0.376832 1.06324 -0.743286 -0.344461 -21.4726 -0.580523 -0.578027 -1.45997 -0.580523 -0.578035 98.1175 -50.2074 -88.2697 30.1806 -8.70374 -11.7897 2.74253 -10.1257 -12.808 -13.4009 -0.961434 3.24906 -79.1926 -52.2373 95.0936 -40.9275 -24.2542 -22.176 4.26424 68.5049 0.0181319 3.90935 -0.378543 -13.7187 16.6338 0.761782 2.21658 -15.1255 0.303401 -1.6752 
13.5773 97.1276 -28.1604 -143.442 -87.6155 -142.374 -177.318 2.58647 88.5639 -15.028 1.45903 1.06976 66.3719 4.28267 0.941379 31.0628 0.849965 1.9996 174.634 1.63615 93.045 -13.9955 -9.65669 -0.241234 65.134 -7.54476 -0.217378 30.2733 -1.99054 1.00021 -0.335232 7.05273 -90.2415 12.7671 -0.78121 -0.389715 1.09636 -0.797601 -0.354957 -21.4396 -0.627965 -0.606486 -1.42701 -0.627975 -0.606496 98.0764 -50.1881 -88.3349 30.131 -8.48137 -11.656 2.99075 -9.4252 -12.8467 -14.621 -0.945634 2.37045 -79.0282 -52.4267 95.3413 -40.8305 -24.3045 -22.0951 4.17304 68.2212 0.017907 3.6237 -0.331317 -13.2521 16.3175 0.776213 2.12893 -14.6873 0.288226 -1.18105 
13.5973 97.1208 -28.1185 -140.061 -87.6934 -138.942 -177.363 2.72207 88.5756 -15.0335 1.35371 1.09698 66.3542 4.22202 1.02264 31.1376 0.888227 1.82647 174.642 1.6854 93.0686 -13.8907 -9.36763 -0.248784 65.3839 -7.74972 0.265758 30.049 -1.69651 0.887456 -0.327106 7.04347 -90.254 12.7855 -0.771052 -0.415713 1.11476 -0.788603 -0.381387 -21.4211 -0.610475 -0.628231 -1.40847 -0.61047 -0.628232 98.1435 -50.0432 -88.2423 30.2043 -8.56451 -11.7062 3.16059 -8.78716 -12.831 -14.8928 -0.917281 2.00724 -78.9585 -52.5428 95.4471 -40.7078 -24.2951 -22.0323 3.97589 67.5917 0.0174288 3.39337 -0.298023 -12.9372 16.3871 0.405918 1.56645 -14.2105 -0.0572972 0.0882606 
13.6093 97.1153 -28.0988 -139.26 -87.8114 -138.019 -177.304 2.9393 88.6883 -15.2969 1.38505 1.08739 66.4938 4.20708 0.926463 31.0895 0.863127 1.94981 174.847 1.59281 93.2984 -13.5502 -9.27562 -0.359049 65.2001 -7.70986 0.0785905 30.0044 -1.63989 1.08881 -0.322537 7.03836 -90.2748 12.7956 -0.771991 -0.457263 1.12482 -0.791361 -0.422849 -21.4109 -0.598878 -0.668139 -1.39825 -0.598874 -0.668142 98.135 -49.9684 -88.2618 30.3238 -8.44311 -11.6811 3.01804 -9.40974 -12.6653 -14.5307 -0.838776 1.55257 -78.9756 -52.7665 95.4268 -40.4087 -24.2731 -21.9554 3.83079 67.8009 0.0175846 3.01194 -0.281512 -13.1302 16.0712 0.435694 1.18611 -13.6465 0.0323264 0.586504 
13.6179 97.1102 -28.0853 -139.545 -87.8378 -138.294 -177.3 2.88973 88.7126 -15.1579 1.71566 1.06459 66.3547 4.26003 1.14582 31.2645 0.926932 2.2436 174.804 1.58453 93.259 -13.5078 -9.27446 -0.319159 65.2144 -7.69547 0.168602 30.0068 -1.64186 0.974334 -0.328736 7.03601 -90.2851 12.8001 -0.78919 -0.47559 1.12935 -0.809361 -0.440401 -21.4064 -0.609776 -0.690785 -1.39373 -0.60978 -0.690798 98.157 -49.769 -88.244 30.5391 -8.40843 -11.6359 2.97644 -9.43005 -12.7703 -14.4587 -0.874731 1.8831 -78.9192 -52.954 95.5135 -40.4261 -24.5961 -22.0421 4.05629 68.1072 0.0178183 2.8301 -0.265081 -13.1183 16.5058 0.467478 1.56027 -14.3298 -0.0232761 0.325761 
13.6114 97.1201 -28.0889 -140.323 -87.7708 -139.085 -177.279 2.88251 88.6925 -15.318 1.38817 1.08222 66.5229 4.19588 0.812998 31.0441 0.840149 2.04454 174.779 1.47957 93.2417 -13.4521 -9.28106 -0.317909 65.221 -7.76176 0.189006 29.996 -1.62678 0.867626 -0.325594 7.04893 -90.2836 12.7743 -0.782233 -0.473832 1.10357 -0.80233 -0.438948 -21.4321 -0.603669 -0.687014 -1.41949 -0.603674 -0.687024 98.1744 -49.839 -88.2109 30.5009 -8.46312 -11.6673 2.97514 -9.48175 -12.7328 -14.5805 -0.830635 1.46211 -78.9173 -52.7748 95.5126 -40.4819 -24.4093 -21.8821 3.941 67.8897 0.0176517 2.68963 -0.261089 -13.2154 16.4486 0.496079 1.53825 -14.1977 0.0276862 0.181772 
13.6099 97.1204 -28.0878 -140.299 -87.7627 -138.999 -177.296 2.84554 88.7481 -15.2135 1.39824 1.12553 66.4631 4.21702 0.912459 31.1782 0.899653 1.98176 174.792 1.50347 93.3001 -13.5108 -9.22825 -0.308698 65.2495 -7.71139 0.247414 29.9816 -1.60876 0.949754 -0.328422 7.05367 -90.2997 12.7664 -0.795463 -0.503878 1.09564 -0.816869 -0.468388 -21.4399 -0.607255 -0.719654 -1.42722 -0.607257 -0.71966 98.1203 -49.7052 -88.306 30.6222 -8.37959 -11.6682 2.98864 -9.49241 -12.6902 -14.5525 -0.838585 1.54042 -78.9181 -52.9251 95.5149 -40.4222 -24.513 -21.8668 3.99346 67.9169 0.0176723 3.07762 -0.275947 -12.8975 16.455 0.439164 1.7053 -14.2141 -0.0793269 0.220225 
